HIERARCHY
ROOT Hips
{
	OFFSET -3.958830 18.904000 13.208200
	CHANNELS 6 Xposition Yposition Zposition Zrotation Yrotation Xrotation 
	JOINT LHipJoint
	{
		OFFSET 0.000000 0.000000 0.000000
		CHANNELS 3 Zrotation Yrotation Xrotation
		JOINT LeftUpLeg
		{
			OFFSET 1.800000 -1.400000 0.085000
			CHANNELS 3 Zrotation Yrotation Xrotation
			JOINT LeftLeg
			{
				OFFSET 2.215000 -6.000000 0.000000
				CHANNELS 3 Zrotation Yrotation Xrotation
				JOINT LeftFoot
				{
					OFFSET 2.500000 -6.900000 0.000000
					CHANNELS 3 Zrotation Yrotation Xrotation
					JOINT LeftToeBase
					{
						OFFSET 0.200000 -0.500000 1.950000
						CHANNELS 3 Zrotation Yrotation Xrotation
						End Site
						{
							OFFSET 0.000000 0.000000 0.000000
						}
					}
				}
			}
		}
	}
	JOINT RHipJoint
	{
		OFFSET 0.000000 0.000000 0.000000
		CHANNELS 3 Zrotation Yrotation Xrotation
		JOINT RightUpLeg
		{
			OFFSET -1.800000 -1.400000 0.085000
			CHANNELS 3 Zrotation Yrotation Xrotation
			JOINT RightLeg
			{
				OFFSET -2.215000 -6.000000 0.000000
				CHANNELS 3 Zrotation Yrotation Xrotation
				JOINT RightFoot
				{
					OFFSET -2.500000 -6.900000 0.000000
					CHANNELS 3 Zrotation Yrotation Xrotation
					JOINT RightToeBase
					{
						OFFSET -0.200000 -0.500000 1.950000
						CHANNELS 3 Zrotation Yrotation Xrotation
						End Site
						{
							OFFSET 0.000000 0.000000 0.000000
						}
					}
				}
			}
		}
	}
	JOINT LowerBack
	{
		OFFSET 0.000000 0.000000 0.000000
		CHANNELS 3 Zrotation Yrotation Xrotation
		JOINT Spine
		{
			OFFSET -0.087000 1.940000 -0.288900
			CHANNELS 3 Zrotation Yrotation Xrotation
			JOINT Spine1
			{
				OFFSET 0.000000 1.950000 0.060000
				CHANNELS 3 Zrotation Yrotation Xrotation
				JOINT Neck
				{
					OFFSET 0.000000 0.000000 0.000000
					CHANNELS 3 Zrotation Yrotation Xrotation
					JOINT Neck1
					{
						OFFSET 0.000000 1.600000 0.340000
						CHANNELS 3 Zrotation Yrotation Xrotation
						JOINT Head
						{
							OFFSET 0.000000 1.667000 -0.240000
							CHANNELS 3 Zrotation Yrotation Xrotation
							End Site
							{
								OFFSET 0.000000 0.000000 0.000000
							}
						}
					}
				}
				JOINT LeftShoulder
				{
					OFFSET 0.000000 0.000000 0.000000
					CHANNELS 3 Zrotation Yrotation Xrotation
					JOINT LeftArm
					{
						OFFSET 2.700000 1.550000 -0.730000
						CHANNELS 3 Zrotation Yrotation Xrotation
						JOINT LeftForeArm
						{
							OFFSET 5.450000 0.000000 0.000000
							CHANNELS 3 Zrotation Yrotation Xrotation
							JOINT LeftHand
							{
								OFFSET 3.450000 0.000000 0.000000
								CHANNELS 3 Zrotation Yrotation Xrotation
								JOINT LeftHandIndex1
								{
									OFFSET 0.750000 0.000000 0.000000
									CHANNELS 3 Zrotation Yrotation Xrotation
									End Site
									{
										OFFSET 0.000000 0.000000 0.000000
									}
								}
							}
						}
					}
				}
				JOINT RightShoulder
				{
					OFFSET 0.000000 0.000000 0.000000
					CHANNELS 3 Zrotation Yrotation Xrotation
					JOINT RightArm
					{
						OFFSET -2.700000 1.550000 -0.730000
						CHANNELS 3 Zrotation Yrotation Xrotation
						JOINT RightForeArm
						{
							OFFSET -5.450000 0.000000 0.000000
							CHANNELS 3 Zrotation Yrotation Xrotation
							JOINT RightHand
							{
								OFFSET -3.450000 0.000000 0.000000
								CHANNELS 3 Zrotation Yrotation Xrotation
								JOINT RightHandIndex1
								{
									OFFSET -0.750000 0.000000 0.000000
									CHANNELS 3 Zrotation Yrotation Xrotation
									End Site
									{
										OFFSET 0.000000 0.000000 0.000000
									}
								}
							}
						}
					}
				}
			}
		}
	}
}
MOTION
Frames: 10
Frame Time: 0.016667
0.536270 17.277310 -1.945970 -3.780177 33.766809 1.103534 -15.583438 11.059609 5.657259 16.023859 -10.356459 -39.850243 -24.697561 18.792778 40.227133 0.249250 10.862843 0.980292 0.587420 0.045040 0.326060 18.227668 -9.376244 2.452078 -14.102714 2.062455 -35.076150 2.873142 -4.616594 17.479131 0.131467 -2.764139 3.648431 0.272230 0.536140 0.137890 -3.243945 -1.689062 -8.812020 6.430075 -2.693161 19.780362 -3.697970 -0.677569 6.549577 2.934306 2.944453 -8.220140 3.298054 -9.435343 27.658119 1.157850 -10.122200 -9.898590 -13.544839 -12.502546 2.315734 -6.493683 -11.277425 0.431826 -50.594273 -84.721737 42.822266 -3.916031 3.222440 0.589130 0.343750 -0.406820 0.320130 7.635842 10.776744 4.664844 -3.110455 -2.845375 -2.951930 142.323546 66.390987 119.846279 1.508842 -1.628952 -0.452990 0.448860 0.005190 -0.351390 
0.525380 17.239530 -1.971280 -2.387825 33.442818 0.726029 -15.592157 10.928054 5.923929 17.098842 -10.434262 -40.715801 -27.385383 20.837489 41.519185 0.518573 11.490563 0.775347 0.610660 0.055950 0.379410 18.221359 -9.410060 2.316652 -15.464723 1.751710 -33.944344 2.974346 -4.976260 18.578516 0.052813 -2.882806 3.582288 0.215920 0.431530 0.150910 -3.221539 -1.574856 -8.980095 6.068716 -2.212774 22.315479 -4.750857 0.172191 6.014748 3.179656 2.889195 -8.742950 2.845341 -9.608099 29.575873 2.582150 -10.270890 -12.309490 -13.859185 -13.559576 3.102346 -8.141646 -10.927375 -0.330720 -52.109029 -86.803647 44.888475 -3.829970 3.191064 0.657200 0.248780 -0.314850 0.301300 7.345755 12.330984 4.763943 -4.234249 -2.217574 -3.617440 134.960036 66.473768 109.992714 1.631629 -1.412900 -0.394740 0.393930 -0.031520 -0.360020 
0.504800 17.172120 -2.009720 -0.477504 31.825742 -0.540165 -15.619561 10.913649 6.201495 19.086090 -9.556069 -40.457156 -31.593732 23.841962 42.011394 0.796202 12.277771 0.537165 0.581390 0.011970 0.386240 18.175819 -9.472519 2.103588 -16.742759 1.569392 -31.897438 2.394705 -5.153833 19.835685 -0.006985 -2.971032 3.552886 0.150230 0.358840 0.125860 -3.091794 -1.589328 -9.122774 4.971058 -1.159236 26.577518 -5.552802 1.733627 5.337557 3.506377 2.306010 -9.200834 1.228666 -9.580134 32.481236 4.658700 -10.710020 -15.443870 -15.081865 -14.399180 3.747830 -12.401018 -10.363642 -1.974692 137.595318 -88.629340 -142.350963 -3.695788 3.168123 0.764310 0.153520 -0.243720 0.275150 7.823478 14.382624 4.965898 -6.919766 -2.276490 -4.398826 127.832900 66.371013 100.431922 1.778869 -1.152530 -0.399140 0.395090 -0.028330 -0.381580 
0.493830 17.071270 -2.038230 1.113180 32.369328 -1.709204 -15.640330 10.731920 6.566379 21.432863 -9.254794 -41.402864 -35.234057 27.596097 44.533721 1.017250 13.400629 0.210803 0.542020 -0.074660 0.441220 18.179975 -9.554603 1.787109 -18.662797 1.067881 -29.583107 1.618182 -5.626024 21.983362 -0.063867 -3.258245 3.424903 0.122390 0.327430 0.095510 -3.067853 -1.421965 -9.227753 4.923938 -1.189288 30.112562 -7.325491 2.481787 5.369511 4.402212 2.520330 -9.469817 1.384947 -10.337342 33.482766 4.671010 -10.437210 -18.753040 -16.486513 -14.886309 4.182582 -17.623175 -10.963645 -2.840859 140.309498 -82.428290 -142.976646 -3.690751 3.022942 0.892720 0.103340 -0.212340 0.215310 7.318820 15.013329 5.108338 -7.356275 -2.245467 -5.304531 118.949978 67.282254 89.141109 1.940396 -0.739784 -0.483730 0.456540 0.017390 -0.455390 
0.497770 16.946580 -2.064740 2.049344 33.041233 -3.010022 -15.645236 10.565368 6.823407 23.624338 -8.495535 -41.990032 -36.534983 31.587928 48.794926 1.236710 14.519299 -0.131284 0.584820 -0.034530 0.461490 18.212915 -9.636501 1.517751 -19.902954 0.873695 -28.166905 0.089282 -5.939350 25.091070 -0.131403 -3.667722 3.238181 0.170680 0.315430 0.122830 -3.108176 -1.167481 -9.252543 5.719038 -1.664936 32.737664 -9.202121 2.907491 5.906729 5.575099 2.668775 -9.233802 2.033184 -11.017006 32.020793 4.949510 -10.196810 -20.883590 -18.908603 -14.345350 4.151945 -23.701381 -11.633788 -3.203893 146.786446 -74.356791 -147.140866 -3.701890 3.038862 0.932430 0.096900 -0.199180 0.203480 7.278515 14.448939 4.951156 -7.634387 -0.858379 -5.462050 107.273500 69.597408 75.747380 2.221190 -0.308442 -0.493290 0.458110 0.038730 -0.479040 
0.508930 16.789940 -2.073450 2.061861 31.041524 -3.085324 -15.606171 10.228175 7.045351 27.131370 -5.576821 -42.259257 -37.278655 36.148707 52.107413 1.562632 15.269460 -0.316683 0.704870 0.149100 0.504130 18.331527 -9.559155 1.506462 -19.886219 1.744158 -29.264834 -1.014115 -5.883600 27.801547 -0.195530 -3.911252 3.151554 0.242760 0.258700 0.129300 -3.323853 -0.591349 -9.378470 7.841031 -1.786473 32.130819 -11.602777 3.740060 6.582537 6.410698 2.568075 -9.320877 2.200765 -11.134133 31.366778 4.943910 -9.967370 -20.686400 -21.865453 -13.366794 4.356974 -28.872610 -11.104399 -3.087331 148.633662 -66.764153 -145.907471 -3.664031 3.112473 0.856070 0.077580 -0.161150 0.253340 8.316676 13.563683 5.086102 -8.520887 2.810321 -3.563112 90.150054 73.276680 60.739915 2.398908 -0.536610 -0.393340 0.406610 -0.062330 -0.432650 
0.528930 16.616310 -2.056480 1.950936 30.731240 -2.645233 -15.540145 9.936240 7.089039 29.532406 -3.520466 -41.734784 -34.345685 39.088528 57.065695 1.805682 15.940653 -0.456591 0.727170 0.203890 0.467920 18.459081 -9.529674 1.580998 -20.570288 2.286051 -30.495083 -1.026541 -6.374627 30.564271 -0.230537 -4.341849 3.017936 0.262490 0.278540 0.125440 -3.632568 0.018535 -9.482785 10.615429 -2.158180 30.031106 -13.961996 4.154646 6.860502 6.871019 2.217774 -9.464262 1.915663 -11.568440 30.781947 4.917020 -10.877470 -18.293040 -24.216958 -12.740251 4.684449 -32.826816 -10.588887 -2.645305 150.299679 -61.263501 -145.069573 -3.673320 3.159762 0.770370 0.101850 -0.187500 0.294680 9.489479 13.165460 5.367812 -7.107532 3.341439 -3.040352 74.275545 74.238617 49.417133 2.107381 -1.300256 -0.347580 0.382360 -0.097930 -0.383310 
0.563950 16.487660 -2.037860 1.387373 30.532902 -3.407199 -15.490115 9.938825 6.936364 31.353462 -2.024115 -39.224071 -28.732982 39.836920 62.649510 1.901348 16.505284 -0.592821 0.698930 0.151740 0.442590 18.517319 -9.611616 1.621723 -20.864285 2.634610 -30.561058 -1.057861 -6.751745 32.595163 -0.255767 -4.680998 2.901690 0.244420 0.316710 0.129890 -3.833549 0.366207 -9.475980 13.032785 -2.532251 28.661980 -15.152285 4.365289 6.875475 7.420201 1.626527 -9.537292 1.174652 -11.647067 30.743406 4.331350 -11.465100 -16.434190 -25.995645 -12.438057 5.179903 -36.428375 -9.829409 -2.460463 151.524295 -58.318569 -145.464078 -3.706847 3.160741 0.758190 0.125090 -0.222430 0.299600 10.034321 13.688951 5.293032 -4.049302 3.488103 -4.342492 55.638551 71.679176 35.593833 1.778684 -1.824185 -0.365900 0.383710 -0.077580 -0.379710 
0.619870 16.378770 -2.005590 0.631575 30.727930 -5.138212 -15.399671 10.272029 6.379075 31.919837 -1.184745 -34.167703 -21.377553 37.594185 67.201706 1.849413 16.637204 -0.642251 0.655340 0.090900 0.431760 18.545690 -9.891196 1.718989 -21.032428 2.695151 -30.333501 -1.369269 -7.165448 35.217300 -0.301852 -5.093652 2.772682 0.229700 0.343990 0.096410 -4.112732 0.626982 -9.326744 15.490232 -3.308093 26.849184 -16.109665 3.822969 7.631921 7.921463 1.061214 -9.538988 0.282416 -10.795633 32.153681 3.645440 -11.143250 -15.435080 -26.912508 -12.354418 5.758852 -39.139060 -9.444048 -2.434933 151.281642 -55.606536 -143.763736 -3.745077 3.072127 0.778050 0.134220 -0.245550 0.289910 10.008054 14.097024 5.030271 0.979878 5.334869 -6.029629 36.344857 67.267344 21.504874 1.600791 -1.864503 -0.419700 0.428000 -0.054360 -0.397290 
0.658620 16.297130 -1.990790 -0.613584 30.511374 -7.457146 -15.345022 10.891205 5.612800 32.779508 -0.374800 -27.988176 -14.581811 33.409454 68.766192 1.755349 16.017857 -0.506137 0.717030 0.180760 0.457320 18.512231 -10.167745 1.869713 -20.076760 2.868544 -30.377592 -2.355023 -7.180319 38.348991 -0.408174 -5.495208 2.646980 0.242500 0.293890 0.097880 -4.247659 0.514073 -9.095340 16.725630 -4.188642 25.611832 -15.393325 2.762231 8.712548 7.996241 0.428270 -9.672659 -0.828223 -9.344939 33.915793 3.746010 -10.285910 -14.776220 -27.261215 -12.917335 6.534455 -40.934569 -9.654928 -2.540476 150.164623 -53.141710 -140.643665 -3.704516 3.091893 0.745070 0.105330 -0.209690 0.323750 10.437282 15.141340 4.758573 4.626172 8.197888 -6.974231 21.880672 61.098514 11.809799 1.564593 -1.808452 -0.351650 0.377390 -0.127220 -0.369390 
